<svg width="113" height="24" viewBox="0 0 113 24" fill="none" xmlns="http://www.w3.org/2000/svg">
    <path fill-rule="evenodd" clip-rule="evenodd" d="M16.8801 6.38192C16.6229 3.91976 14.531 2.00004 11.9885 2.00004C10.6836 1.99458 9.42727 2.50773 8.50043 3.42606C7.6959 4.2232 7.19715 5.26864 7.07952 6.38192H7.07864C5.29724 6.38192 3.80058 7.68308 3.38011 9.94232L2.61922 15.8123C1.97155 20.1105 3.99286 22 7.94875 22H16.046C19.7043 22 21.8909 19.8703 21.4419 16.0482L20.6564 9.98167C20.1528 7.69432 18.6947 6.38192 16.9516 6.38192H16.8801ZM15.4138 6.38192C15.1653 4.7215 13.7261 3.44777 11.9855 3.44777C11.0644 3.44391 10.1797 3.80526 9.52708 4.45192C8.99719 4.97695 8.65567 5.65494 8.54594 6.38192H15.4138ZM7.07864 7.82965H16.9516C17.9739 7.82965 18.8719 8.63792 19.2244 10.2299L19.968 15.9973C20.4105 19.0657 18.9375 20.5522 16.046 20.5522H7.94875C4.81775 20.5522 3.55418 19.3711 4.06021 16.0121L4.81697 10.1666C5.10614 8.61886 6.01393 7.82965 7.07864 7.82965ZM14.8652 10.5164C15.267 10.5164 15.5927 10.8405 15.5927 11.2403C15.5927 11.6067 15.319 11.9096 14.9639 11.9575L14.8652 11.9641H14.8208C14.419 11.9641 14.0933 11.64 14.0933 11.2403C14.0933 10.8738 14.367 10.5709 14.7221 10.523L14.8208 10.5164H14.8652ZM9.937 11.2403C9.937 10.8405 9.61129 10.5164 9.20951 10.5164H9.16512L9.0664 10.523C8.71131 10.5709 8.43762 10.8738 8.43762 11.2403C8.43762 11.64 8.76333 11.9641 9.16512 11.9641H9.20951L9.30822 11.9575C9.66331 11.9096 9.937 11.6067 9.937 11.2403Z" fill="#0C1A30"/>
    <circle cx="104.579" cy="7.27803" r="4.77803" stroke="#0C1A30" stroke-width="1.5" stroke-linecap="round" stroke-linejoin="round"/>
    <path fill-rule="evenodd" clip-rule="evenodd" d="M97 17.7016C96.9987 17.3657 97.0739 17.0339 97.2197 16.7313C97.6774 15.816 98.968 15.3308 100.039 15.1112C100.811 14.9463 101.594 14.8362 102.382 14.7816C103.841 14.6535 105.308 14.6535 106.767 14.7816C107.554 14.8369 108.337 14.947 109.11 15.1112C110.181 15.3308 111.471 15.7702 111.929 16.7313C112.222 17.3481 112.222 18.0642 111.929 18.681C111.471 19.6421 110.181 20.0814 109.11 20.2919C108.338 20.4636 107.555 20.5768 106.767 20.6306C105.579 20.7313 104.387 20.7496 103.197 20.6855C102.922 20.6855 102.657 20.6855 102.382 20.6306C101.597 20.5775 100.816 20.4642 100.048 20.2919C98.968 20.0814 97.6865 19.6421 97.2197 18.681C97.0746 18.3749 96.9996 18.0403 97 17.7016Z" stroke="#0C1A30" stroke-width="1.5" stroke-linecap="round" stroke-linejoin="round"/>
</svg>